<svg xmlns="http://www.w3.org/2000/svg" xmlns:xlink="http://www.w3.org/1999/xlink" width="500" zoomAndPan="magnify" viewBox="0 0 375 374.999991" height="500" preserveAspectRatio="xMidYMid meet" version="1.0"><defs><g/><clipPath id="f04b4a9d09"><path d="M 59.558594 108.128906 L 337.808594 108.128906 L 337.808594 282.878906 L 59.558594 282.878906 Z M 59.558594 108.128906 " clip-rule="nonzero"/></clipPath></defs><g clip-path="url(#f04b4a9d09)"><path fill="#e4d518" d="M 67.355469 108.125 C 63.054688 108.125 59.597656 111.582031 59.597656 115.878906 L 59.597656 253.1875 C 59.597656 257.484375 63.054688 260.945312 67.355469 260.945312 L 184.855469 260.945312 C 181.800781 265.519531 178.375 271.367188 177.796875 275.308594 L 163.777344 275.308594 C 163.207031 275.308594 162.75 275.765625 162.75 276.332031 L 162.75 281.921875 C 162.75 282.492188 163.207031 282.949219 163.777344 282.949219 L 233.273438 282.949219 C 233.839844 282.949219 234.300781 282.492188 234.300781 281.921875 L 234.300781 276.332031 C 234.300781 275.765625 233.839844 275.308594 233.273438 275.308594 L 219.253906 275.308594 C 218.675781 271.367188 215.246094 265.519531 212.195312 260.945312 L 329.695312 260.945312 C 333.992188 260.945312 337.453125 257.484375 337.453125 253.1875 L 337.453125 115.878906 C 337.453125 111.582031 333.992188 108.125 329.695312 108.125 Z M 65.847656 116.414062 L 331.199219 116.414062 L 331.199219 252.65625 L 65.847656 252.65625 Z M 65.847656 116.414062 " fill-opacity="1" fill-rule="nonzero"/></g><g fill="#ff3131" fill-opacity="1"><g transform="translate(147.77385, 200.430006)"><g><path d="M 40.734375 0 L 2.484375 0 L 16.953125 -68.453125 L 55.25 -68.453125 L 52.71875 -56.5625 L 28.75 -56.5625 L 25.609375 -41.53125 L 47.953125 -41.53125 L 45.375 -29.640625 L 23.03125 -29.640625 L 19.296875 -11.984375 L 43.265625 -11.984375 Z M 40.734375 0 "/></g></g></g><g fill="#ff3131" fill-opacity="1"><g transform="translate(173.768943, 243.850827)"><g><path d="M 31.703125 -13.953125 L 52.546875 -55.296875 L 68.546875 -55.296875 L 56.859375 0 L 46.265625 0 L 51.75 -26.171875 C 53.082031 -32.398438 54.40625 -37.960938 55.71875 -42.859375 L 55.53125 -42.859375 L 34 0 L 23.375 0 L 21.0625 -42.859375 L 20.921875 -42.859375 C 20.640625 -40.640625 20.15625 -37.722656 19.46875 -34.109375 C 18.789062 -30.503906 16.4375 -19.132812 12.40625 0 L 2 0 L 13.6875 -55.296875 L 28.96875 -55.296875 L 31.546875 -13.953125 Z M 31.703125 -13.953125 "/></g></g></g></svg>